<?xml version="1.0" encoding="UTF-8"?>
<svg xmlns="http://www.w3.org/2000/svg" viewBox="0 0 100 100">
  <defs>
    <style>
      .cls-1 { fill: #AE4329; }
      .cls-2 { fill: none; stroke: #AE4329; stroke-width: 6; stroke-linecap: round; }
      .cut { fill: none; stroke: #000; stroke-width: 3.5; stroke-linecap: round; }
    </style>
    <mask id="veins">
      <rect width="100" height="100" fill="#fff"/>
      <path class="cut" d="M50,48V26M43,60C36,56 29,50 24,42M57,60C64,56 71,50 76,42"/>
    </mask>
  </defs>
  <g mask="url(#veins)">
    <path class="cls-1" d="M50,56C39,44 40,24 50,10C60,24 61,44 50,56Z"/>
    <path class="cls-1" d="M47,68C28,68 15,54 12,32C33,33 48,46 47,68Z"/>
    <path class="cls-1" d="M53,68C72,68 85,54 88,32C67,33 52,46 53,68Z"/>
  </g>
  <path class="cls-2" d="M50,64V90"/>
</svg>
